HIERARCHY
ROOT root
{
	OFFSET 0.00 0.00 0.00
	CHANNELS 6 Xposition Yposition Zposition Zrotation Xrotation Yrotation
	JOINT lowerback
	{
		OFFSET 0 0 0
		CHANNELS 6 Xposition Yposition Zposition Zrotation Xrotation Yrotation
		JOINT upperback
		{
			OFFSET -0.214371 12.3768 -1.12219
			CHANNELS 6 Xposition Yposition Zposition Zrotation Xrotation Yrotation
			JOINT thorax
			{
				OFFSET -0.00137213 12.3873 0.296195
				CHANNELS 6 Xposition Yposition Zposition Zrotation Xrotation Yrotation
				JOINT lowerneck
				{
					OFFSET 0.0883157 12.5016 0.82912
					CHANNELS 6 Xposition Yposition Zposition Zrotation Xrotation Yrotation
					JOINT upperneck
					{
						OFFSET -1 10.1794 0.943522
						CHANNELS 6 Xposition Yposition Zposition Zrotation Xrotation Yrotation
						JOINT head
						{
							OFFSET 0.667525 10.2797 -1.57149
							CHANNELS 6 Xposition Yposition Zposition Zrotation Xrotation Yrotation
							End Site
							{
								OFFSET 0 0 0
							}
						}
					}
				}
				JOINT lclavicle
				{
					OFFSET 0.0883157 12.5016 0.82912
					CHANNELS 6 Xposition Yposition Zposition Zrotation Xrotation Yrotation
					JOINT lhumerus
					{
						OFFSET 20.61 4.45006 1.43784
						CHANNELS 6 Xposition Yposition Zposition Zrotation Xrotation Yrotation
						JOINT lradius
						{
							OFFSET 0 -30.3438 0
							CHANNELS 6 Xposition Yposition Zposition Zrotation Xrotation Yrotation
							JOINT lwrist
							{
								OFFSET 0 -18.964 0
								CHANNELS 6 Xposition Yposition Zposition Zrotation Xrotation Yrotation
								JOINT lhand
								{
									OFFSET 0 -9.48199 0
									CHANNELS 6 Xposition Yposition Zposition Zrotation Xrotation Yrotation
									JOINT lfingers
									{
										OFFSET 0 -3.17138 0
										CHANNELS 6 Xposition Yposition Zposition Zrotation Xrotation Yrotation
										End Site
										{
											OFFSET 0 -2.55685 0
										}
									}
								}
								JOINT lthumb
								{
									OFFSET 0 -9.48199 0
									CHANNELS 6 Xposition Yposition Zposition Zrotation Xrotation Yrotation
									End Site
									{
										OFFSET 0 -3.67114 0
									}
								}
							}
						}
					}
				}
				JOINT rclavicle
				{
					OFFSET 0.0883157 12.5016 0.82912
					CHANNELS 6 Xposition Yposition Zposition Zrotation Xrotation Yrotation
					JOINT rhumerus
					{
						OFFSET -20.61 4.45 1.44
						CHANNELS 6 Xposition Yposition Zposition Zrotation Xrotation Yrotation
						JOINT rradius
						{
							OFFSET 0 -29.5102 0
							CHANNELS 6 Xposition Yposition Zposition Zrotation Xrotation Yrotation
							JOINT rwrist
							{
								OFFSET 0 -19.2342 0
								CHANNELS 6 Xposition Yposition Zposition Zrotation Xrotation Yrotation
								JOINT rhand
								{
									OFFSET 0 -9.61712 0
									CHANNELS 6 Xposition Yposition Zposition Zrotation Xrotation Yrotation
									JOINT rfingers
									{
										OFFSET 0 -3.29215 0
										CHANNELS 6 Xposition Yposition Zposition Zrotation Xrotation Yrotation
										End Site
										{
											OFFSET 0 -2.557 0
										}
									}
								}
								JOINT rthumb
								{
									OFFSET 0 -9.61712 0
									CHANNELS 6 Xposition Yposition Zposition Zrotation Xrotation Yrotation
									End Site
									{
										OFFSET 0 -3.671 0
									}
								}
							}
						}
					}
				}
			}
		}
	}
	JOINT rfemur
	{
		OFFSET -8.46272 -9.62775 4.76248
		CHANNELS 6 Xposition Yposition Zposition Zrotation Xrotation Yrotation
		JOINT rtibia
		{
			OFFSET 1.00552e-005 -38.0331 0
			CHANNELS 6 Xposition Yposition Zposition Zrotation Xrotation Yrotation
			JOINT rfoot
			{
				OFFSET 1.14428e-005 -43.2815 0
				CHANNELS 6 Xposition Yposition Zposition Zrotation Xrotation Yrotation
				JOINT rtoes
				{
					OFFSET 0 -14.1868 -3.08763
					CHANNELS 6 Xposition Yposition Zposition Zrotation Xrotation Yrotation
					End Site
					{
						OFFSET 0 -7.27332 0
					}
				}
			}
		}
	}
	JOINT lfemur
	{
		OFFSET 9.10607 -9.62778 4.76249
		CHANNELS 6 Xposition Yposition Zposition Zrotation Xrotation Yrotation
		JOINT ltibia
		{
			OFFSET -1.01399e-005 -38.3535 0
			CHANNELS 6 Xposition Yposition Zposition Zrotation Xrotation Yrotation
			JOINT lfoot
			{
				OFFSET -1.12937e-005 -42.7176 0
				CHANNELS 6 Xposition Yposition Zposition Zrotation Xrotation Yrotation
				JOINT ltoes
				{
					OFFSET 0 -13.9965 -2.83857
					CHANNELS 6 Xposition Yposition Zposition Zrotation Xrotation Yrotation
					End Site
					{
						OFFSET 0 -7.16348 0
					}
				}
			}
		}
	}
}
MOTION
Frames: 6
Frame Time: 0.00833333
0.00266968	97.6562	66.5405	-4.19654	2.06141	1.81917	0 0 0 4.79413	-3.0875	1.18196	-0.214371 12.3768 -1.12219 1.01048	3.24286	1.23465	-0.00137213 12.3873 0.296195 -1.5045	5.17888	0.751659	0.0883157 12.5016 0.82912 -4.90766	-8.52081	-3.97759	-1 10.1794 0.943522 10.0742	2.07588	-5.3598	0.667525 10.2797 -1.57149 3.8918	2.63802	-2.45379	0.0883157 12.5016 0.82912 -15	0	-0	20.61 4.45006 1.43784 13.2102	1.2388	-167.664	0 -30.3438 0 -0	25.1821	-0	0 -18.964 0 1.33899e-014	-2.9355e-015	-114.731	0 -9.48199 0 1.22245	4.37968	-2.58917e-014	0 -3.17138 0 -0	7.12502	-0	0 -9.48199 0 25	15	-1.36605e-015	0.0883157 12.5016 0.82912 15	0	-0	-20.61 4.45 1.44 -18.6518	-10.843	-168.668	0 -29.5102 0 -0	36.174	-0	0 -19.2342 0 5.72529e-016	-2.7761e-015	113.306	0 -9.61712 0 1.22	4.38	-0	0 -3.29215 0 -0	7.12502	-0	0 -9.61712 0 25	15	-7.97034e-015	-8.46272 -9.62775 4.76248 10.2856	4.07962	-0.915496	1.00552e-005 -38.0331 0 -0	19.3878	-0	1.14428e-005 -43.2815 0 4.79474	-76.3531	4.93356	0 -14.1868 -3.08763 -0	-29.0616	-0	9.10607 -9.62778 4.76249 1.45496	-26.349	3.89422	-1.01399e-005 -38.3535 0 -0	16.3591	-0	-1.12937e-005 -42.7176 0 17.3324	-68.0527	18.5962	0 -13.9965 -2.83857 -0	-37.433	-0
0.0208062	97.6404	67.0367	-4.26524	2.23815	1.70821	0 0 0 4.81308	-3.28548	1.18148	-0.214371 12.3768 -1.12219 1.02423	3.18889	1.22154	-0.00137213 12.3873 0.296195 -1.49877	5.23459	0.746511	0.0883157 12.5016 0.82912 -4.87698	-8.56701	-3.94533	-1 10.1794 0.943522 10.0151	2.17424	-5.32106	0.667525 10.2797 -1.57149 3.85969	2.67119	-2.43224	0.0883157 12.5016 0.82912 -15	0	-0	20.61 4.45006 1.43784 13.1861	1.4155	-167.343	0 -30.3438 0 -0	24.8678	-0	0 -18.964 0 1.33808e-014	-2.95506e-015	-114.907	0 -9.48199 0 1.22245	4.37968	-2.58917e-014	0 -3.17138 0 -0	7.12502	-0	0 -9.48199 0 25	15	-1.36605e-015	0.0883157 12.5016 0.82912 15	0	-0	-20.61 4.45 1.44 -18.6114	-10.5277	-168.673	0 -29.5102 0 -0	35.8913	-0	0 -19.2342 0 5.8392e-016	-2.8024e-015	113.54	0 -9.61712 0 1.22	4.38	-0	0 -3.29215 0 -0	7.12502	-0	0 -9.61712 0 25	15	-7.97034e-015	-8.46272 -9.62775 4.76248 10.3104	4.41409	-0.921374	1.00552e-005 -38.0331 0 -0	19.0198	-0	1.14428e-005 -43.2815 0 5.52415	-76.1733	5.68814	0 -14.1868 -3.08763 -0	-29.2143	-0	9.10607 -9.62778 4.76249 1.44845	-26.3129	3.95796	-1.01399e-005 -38.3535 0 -0	15.5303	-0	-1.12937e-005 -42.7176 0 15.9053	-68.122	17.07	0 -13.9965 -2.83857 -0	-37.5995	-0
0.0382401	97.6189	67.54	-4.33917	2.41126	1.6009	0 0 0 4.83499	-3.47564	1.17792	-0.214371 12.3768 -1.12219 1.03743	3.13369	1.20621	-0.00137213 12.3873 0.296195 -1.49577	5.2845	0.740283	0.0883157 12.5016 0.82912 -4.84635	-8.61036	-3.913	-1 10.1794 0.943522 9.9606	2.24957	-5.28118	0.667525 10.2797 -1.57149 3.83197	2.69765	-2.41073	0.0883157 12.5016 0.82912 -15	0	-0	20.61 4.45006 1.43784 13.1621	1.59271	-167.003	0 -30.3438 0 -0	24.5577	-0	0 -18.964 0 1.33719e-014	-2.97427e-015	-115.08	0 -9.48199 0 1.22245	4.37968	-2.58917e-014	0 -3.17138 0 -0	7.12502	-0	0 -9.48199 0 25	15	-1.36605e-015	0.0883157 12.5016 0.82912 15	0	-0	-20.61 4.45 1.44 -18.5672	-10.2029	-168.717	0 -29.5102 0 -0	35.5512	-0	0 -19.2342 0 5.97e-016	-2.83223e-015	113.806	0 -9.61712 0 1.22	4.38	-0	0 -3.29215 0 -0	7.12502	-0	0 -9.61712 0 25	15	-7.97034e-015	-8.46272 -9.62775 4.76248 10.338	4.74594	-0.921172	1.00552e-005 -38.0331 0 -0	18.6734	-0	1.14428e-005 -43.2815 0 6.26268	-75.9911	6.45326	0 -14.1868 -3.08763 -0	-29.3789	-0	9.10607 -9.62778 4.76249 1.4588	-26.2928	4.01088	-1.01399e-005 -38.3535 0 -0	14.8543	-0	-1.12937e-005 -42.7176 0 14.5226	-68.1938	15.5889	0 -13.9965 -2.83857 -0	-37.7571	-0
0.0559565	97.5918	68.0482	-4.4178	2.57907	1.49618	0 0 0 4.85967	-3.65541	1.1728	-0.214371 12.3768 -1.12219 1.04979	3.07802	1.18922	-0.00137213 12.3873 0.296195 -1.49645	5.32799	0.73319	0.0883157 12.5016 0.82912 -4.81582	-8.65073	-3.88069	-1 10.1794 0.943522 9.91071	2.30031	-5.24022	0.667525 10.2797 -1.57149 3.80911	2.71693	-2.38931	0.0883157 12.5016 0.82912 -15	0	-0	20.61 4.45006 1.43784 13.1389	1.76825	-166.645	0 -30.3438 0 -0	24.25	-0	0 -18.964 0 1.33629e-014	-2.99344e-015	-115.253	0 -9.48199 0 1.22245	4.37968	-2.58917e-014	0 -3.17138 0 -0	7.12502	-0	0 -9.48199 0 25	15	-1.36605e-015	0.0883157 12.5016 0.82912 15	0	-0	-20.61 4.45 1.44 -18.5188	-9.86957	-168.8	0 -29.5102 0 -0	35.1531	-0	0 -19.2342 0 6.11717e-016	-2.86536e-015	114.102	0 -9.61712 0 1.22	4.38	-0	0 -3.29215 0 -0	7.12502	-0	0 -9.61712 0 25	15	-7.97034e-015	-8.46272 -9.62775 4.76248 10.3672	5.07558	-0.914301	1.00552e-005 -38.0331 0 -0	18.351	-0	1.14428e-005 -43.2815 0 7.01343	-75.8042	7.23224	0 -14.1868 -3.08763 -0	-29.5523	-0	9.10607 -9.62778 4.76249 1.48619	-26.2845	4.05643	-1.01399e-005 -38.3535 0 -0	14.3322	-0	-1.12937e-005 -42.7176 0 13.2148	-68.2611	14.1867	0 -13.9965 -2.83857 -0	-37.8968	-0
0.0754017	97.5591	68.5605	-4.49975	2.73987	1.39251	0 0 0 4.88603	-3.8223	1.16656	-0.214371 12.3768 -1.12219 1.06075	3.0228	1.17135	-0.00137213 12.3873 0.296195 -1.4984	5.36461	0.725574	0.0883157 12.5016 0.82912 -4.78547	-8.68798	-3.84854	-1 10.1794 0.943522 9.86575	2.325	-5.19831	0.667525 10.2797 -1.57149 3.79118	2.72837	-2.36808	0.0883157 12.5016 0.82912 -15	0	-0	20.61 4.45006 1.43784 13.1171	1.93961	-166.272	0 -30.3438 0 -0	23.9428	-0	0 -18.964 0 1.33536e-014	-3.01303e-015	-115.43	0 -9.48199 0 1.22245	4.37968	-2.58917e-014	0 -3.17138 0 -0	7.12502	-0	0 -9.48199 0 25	15	-1.36605e-015	0.0883157 12.5016 0.82912 15	0	-0	-20.61 4.45 1.44 -18.4658	-9.52926	-168.922	0 -29.5102 0 -0	34.6965	-0	0 -19.2342 0 6.28124e-016	-2.90176e-015	114.428	0 -9.61712 0 1.22	4.38	-0	0 -3.29215 0 -0	7.12502	-0	0 -9.61712 0 25	15	-7.97034e-015	-8.46272 -9.62775 4.76248 10.3962	5.4036	-0.899676	1.00552e-005 -38.0331 0 -0	18.0545	-0	1.14428e-005 -43.2815 0 7.77285	-75.6099	8.02159	0 -14.1868 -3.08763 -0	-29.7318	-0	9.10607 -9.62778 4.76249 1.53005	-26.2834	4.09914	-1.01399e-005 -38.3535 0 -0	13.9608	-0	-1.12937e-005 -42.7176 0 12.0106	-68.3178	12.8952	0 -13.9965 -2.83857 -0	-38.0123	-0
0.09538	97.5207	69.0789	-4.58271	2.89193	1.28804	0 0 0 4.91212	-3.97392	1.15974	-0.214371 12.3768 -1.12219 1.06956	2.96901	1.15365	-0.00137213 12.3873 0.296195 -1.50353	5.39407	0.717875	0.0883157 12.5016 0.82912 -4.75552	-8.72179	-3.81678	-1 10.1794 0.943522 9.82637	2.32225	-5.15569	0.667525 10.2797 -1.57149 3.77797	2.73115	-2.34713	0.0883157 12.5016 0.82912 -15	0	-0	20.61 4.45006 1.43784 13.0973	2.10377	-165.886	0 -30.3438 0 -0	23.6336	-0	0 -18.964 0 1.33438e-014	-3.03359e-015	-115.616	0 -9.48199 0 1.22245	4.37968	-2.58917e-014	0 -3.17138 0 -0	7.12502	-0	0 -9.48199 0 25	15	-1.36605e-015	0.0883157 12.5016 0.82912 15	0	-0	-20.61 4.45 1.44 -18.4076	-9.18383	-169.087	0 -29.5102 0 -0	34.181	-0	0 -19.2342 0 6.46174e-016	-2.94117e-015	114.782	0 -9.61712 0 1.22	4.38	-0	0 -3.29215 0 -0	7.12502	-0	0 -9.61712 0 25	15	-7.97034e-015	-8.46272 -9.62775 4.76248 10.4224	5.73061	-0.87564	1.00552e-005 -38.0331 0 -0	17.7855	-0	1.14428e-005 -43.2815 0 8.53028	-75.4058	8.8105	0 -14.1868 -3.08763 -0	-29.9155	-0	9.10607 -9.62778 4.76249 1.58881	-26.283	4.14423	-1.01399e-005 -38.3535 0 -0	13.7325	-0	-1.12937e-005 -42.7176 0 10.9346	-68.3582	11.7413	0 -13.9965 -2.83857 -0	-38.1004	-0
